<svg width="16" height="16" viewBox="0 0 16 16" fill="none" xmlns="http://www.w3.org/2000/svg">
<path d="M6.95327 12.2467C6.85327 12.2467 6.75994 12.22 6.67327 12.16C6.53327 12.0667 6.45327 11.9133 6.45327 11.7467C6.45327 11.6467 6.44661 11.54 6.43327 11.4333C6.37327 10.96 6.15994 10.5467 5.79994 10.1867C5.43994 9.82667 4.99327 9.6 4.51327 9.54C4.43327 9.53333 4.31994 9.52667 4.21327 9.53333C4.03994 9.54667 3.87994 9.47333 3.77994 9.33333C3.67994 9.2 3.65327 9.02 3.70661 8.86C3.80661 8.58667 3.95327 8.34 4.12661 8.14L5.15327 6.84667C6.91994 4.64 10.4999 1.98667 13.1199 0.933332C13.6733 0.719999 14.2666 0.846665 14.6733 1.24667C15.0933 1.66667 15.2199 2.26667 14.9999 2.81333C13.9466 5.44 11.2999 9.01333 9.09327 10.78L7.77994 11.8333C7.53327 12.0133 7.33327 12.1267 7.13327 12.2067C7.07994 12.2333 7.01327 12.2467 6.95327 12.2467ZM5.02661 8.62667C5.58661 8.77333 6.08661 9.06667 6.50661 9.48667C6.92661 9.9 7.20661 10.38 7.34661 10.9133L8.47327 10.0067C10.5666 8.33333 13.0799 4.94 14.0733 2.44667C14.1733 2.2 14.0333 2.02667 13.9666 1.96667C13.9199 1.92 13.7466 1.77333 13.4799 1.87333C10.9999 2.87333 7.60661 5.38667 5.92661 7.48L5.02661 8.62667Z" fill="#515151"/>
<path d="M2.72007 15.1667C2.22007 15.1667 1.74007 14.9667 1.38007 14.6067C0.96674 14.1933 0.76674 13.62 0.833407 13.0333L1.01341 11.3933C1.18674 9.76666 2.52007 8.56 4.17341 8.52666C4.30007 8.52 4.46674 8.52666 4.62007 8.54C5.34674 8.63333 5.99341 8.96 6.51341 9.48C7.02674 9.99333 7.33341 10.6067 7.42674 11.2933C7.44674 11.44 7.46007 11.6 7.46007 11.74C7.46007 12.62 7.12007 13.44 6.50674 14.06C5.99341 14.5667 5.33341 14.88 4.58674 14.9733L2.94007 15.1533C2.86674 15.16 2.79341 15.1667 2.72007 15.1667ZM4.30007 9.53333C4.27341 9.53333 4.24007 9.53333 4.21341 9.53333C3.20674 9.55333 2.14007 10.24 2.00674 11.5067L1.82674 13.1467C1.79341 13.4267 1.89341 13.7 2.08674 13.9C2.28007 14.0933 2.55341 14.1933 2.82674 14.16L4.46674 13.98C4.98007 13.9133 5.44007 13.7 5.78674 13.3533C6.21341 12.9267 6.45341 12.3533 6.45341 11.74C6.45341 11.64 6.44674 11.5333 6.43341 11.4267C6.37341 10.9533 6.16007 10.54 5.80007 10.18C5.44007 9.82 4.99341 9.59333 4.51341 9.53333C4.46007 9.53333 4.38007 9.53333 4.30007 9.53333Z" fill="#515151"/>
<path d="M9.49342 10.1467C9.22009 10.1467 8.99342 9.92 8.99342 9.64667C8.99342 8.18 7.80009 6.99333 6.34009 6.99333C6.06675 6.99333 5.84009 6.76667 5.84009 6.49333C5.84009 6.22 6.06009 5.99333 6.33342 5.99333C8.34675 5.99333 9.98675 7.63333 9.98675 9.64667C9.99342 9.92666 9.76675 10.1467 9.49342 10.1467Z" fill="#515151"/>
</svg>
