<svg width="32" height="32" viewBox="0 0 32 32" fill="none" xmlns="http://www.w3.org/2000/svg">
<path d="M14.9533 20.2467C14.8533 20.2467 14.7599 20.22 14.6733 20.16C14.5333 20.0667 14.4533 19.9133 14.4533 19.7467C14.4533 19.6467 14.4466 19.54 14.4333 19.4333C14.3733 18.96 14.1599 18.5467 13.7999 18.1867C13.4399 17.8267 12.9933 17.6 12.5133 17.54C12.4333 17.5333 12.3199 17.5267 12.2133 17.5333C12.0399 17.5467 11.8799 17.4733 11.7799 17.3333C11.6799 17.2 11.6533 17.02 11.7066 16.86C11.8066 16.5867 11.9533 16.34 12.1266 16.14L13.1533 14.8467C14.9199 12.64 18.4999 9.98667 21.1199 8.93333C21.6733 8.72 22.2666 8.84667 22.6733 9.24667C23.0933 9.66667 23.2199 10.2667 22.9999 10.8133C21.9466 13.44 19.2999 17.0133 17.0933 18.78L15.7799 19.8333C15.5333 20.0133 15.3333 20.1267 15.1333 20.2067C15.0799 20.2333 15.0133 20.2467 14.9533 20.2467ZM13.0266 16.6267C13.5866 16.7733 14.0866 17.0667 14.5066 17.4867C14.9266 17.9 15.2066 18.38 15.3466 18.9133L16.4733 18.0067C18.5666 16.3333 21.0799 12.94 22.0733 10.4467C22.1733 10.2 22.0333 10.0267 21.9666 9.96667C21.9199 9.92 21.7466 9.77333 21.4799 9.87333C18.9999 10.8733 15.6066 13.3867 13.9266 15.48L13.0266 16.6267Z" fill="#515151"/>
<path d="M10.7201 23.1667C10.2201 23.1667 9.74007 22.9667 9.38007 22.6067C8.96674 22.1933 8.76674 21.62 8.83341 21.0333L9.01341 19.3933C9.18674 17.7667 10.5201 16.56 12.1734 16.5267C12.3001 16.52 12.4667 16.5267 12.6201 16.54C13.3467 16.6333 13.9934 16.96 14.5134 17.48C15.0267 17.9933 15.3334 18.6067 15.4267 19.2933C15.4467 19.44 15.4601 19.6 15.4601 19.74C15.4601 20.62 15.1201 21.44 14.5067 22.06C13.9934 22.5667 13.3334 22.88 12.5867 22.9733L10.9401 23.1533C10.8667 23.16 10.7934 23.1667 10.7201 23.1667ZM12.3001 17.5333C12.2734 17.5333 12.2401 17.5333 12.2134 17.5333C11.2067 17.5533 10.1401 18.24 10.0067 19.5067L9.82674 21.1467C9.79341 21.4267 9.89341 21.7 10.0867 21.9C10.2801 22.0933 10.5534 22.1933 10.8267 22.16L12.4667 21.98C12.9801 21.9133 13.4401 21.7 13.7867 21.3533C14.2134 20.9267 14.4534 20.3533 14.4534 19.74C14.4534 19.64 14.4467 19.5333 14.4334 19.4267C14.3734 18.9533 14.1601 18.54 13.8001 18.18C13.4401 17.82 12.9934 17.5933 12.5134 17.5333C12.4601 17.5333 12.3801 17.5333 12.3001 17.5333Z" fill="#515151"/>
<path d="M17.4934 18.1467C17.2201 18.1467 16.9934 17.92 16.9934 17.6467C16.9934 16.18 15.8001 14.9933 14.3401 14.9933C14.0668 14.9933 13.8401 14.7667 13.8401 14.4933C13.8401 14.22 14.0601 13.9933 14.3334 13.9933C16.3468 13.9933 17.9868 15.6333 17.9868 17.6467C17.9934 17.9267 17.7668 18.1467 17.4934 18.1467Z" fill="#515151"/>
<rect x="0.5" y="0.5" width="31" height="31" rx="7.5" stroke="#515151"/>
</svg>
