<svg width="13" height="12" viewBox="0 0 13 12" fill="none" xmlns="http://www.w3.org/2000/svg">
<path d="M10.6451 3.36499C10.6351 3.36499 10.6201 3.36499 10.6051 3.36499C7.9601 3.09999 5.3201 2.99999 2.7051 3.26499L1.6851 3.36499C1.4751 3.38499 1.2901 3.23499 1.2701 3.02499C1.2501 2.81499 1.4001 2.63499 1.6051 2.61499L2.6251 2.51499C5.2851 2.24499 7.9801 2.34999 10.6801 2.61499C10.8851 2.63499 11.0351 2.81999 11.0151 3.02499C11.0001 3.21999 10.8351 3.36499 10.6451 3.36499Z" fill="#515151"/>
<path d="M4.3949 2.86C4.3749 2.86 4.3549 2.86 4.3299 2.855C4.1299 2.82 3.9899 2.625 4.0249 2.425L4.1349 1.77C4.2149 1.29 4.3249 0.625 5.4899 0.625H6.7999C7.9699 0.625 8.0799 1.315 8.1549 1.775L8.2649 2.425C8.2999 2.63 8.1599 2.825 7.9599 2.855C7.7549 2.89 7.5599 2.75 7.5299 2.55L7.4199 1.9C7.3499 1.465 7.3349 1.38 6.8049 1.38H5.4949C4.9649 1.38 4.9549 1.45 4.8799 1.895L4.7649 2.545C4.7349 2.73 4.5749 2.86 4.3949 2.86Z" fill="#515151"/>
<path d="M7.74997 11.375H4.53997C2.79497 11.375 2.72497 10.41 2.66997 9.62998L2.34497 4.59498C2.32997 4.38998 2.48997 4.20998 2.69497 4.19498C2.90497 4.18498 3.07997 4.33998 3.09497 4.54498L3.41997 9.57998C3.47497 10.34 3.49497 10.625 4.53997 10.625H7.74997C8.79997 10.625 8.81997 10.34 8.86997 9.57998L9.19497 4.54498C9.20997 4.33998 9.38997 4.18498 9.59497 4.19498C9.79997 4.20998 9.95997 4.38498 9.94497 4.59498L9.61997 9.62998C9.56497 10.41 9.49497 11.375 7.74997 11.375Z" fill="#515151"/>
<path d="M6.97506 8.625H5.31006C5.10506 8.625 4.93506 8.455 4.93506 8.25C4.93506 8.045 5.10506 7.875 5.31006 7.875H6.97506C7.18006 7.875 7.35006 8.045 7.35006 8.25C7.35006 8.455 7.18006 8.625 6.97506 8.625Z" fill="#515151"/>
<path d="M7.39502 6.625H4.89502C4.69002 6.625 4.52002 6.455 4.52002 6.25C4.52002 6.045 4.69002 5.875 4.89502 5.875H7.39502C7.60002 5.875 7.77002 6.045 7.77002 6.25C7.77002 6.455 7.60002 6.625 7.39502 6.625Z" fill="#515151"/>
</svg>
